<svg xmlns="http://www.w3.org/2000/svg" width="44.687" height="37.647" viewBox="0 0 446.873 376.466">
  <defs>
    <style>
      .cls-1 {
        fill: none;
        stroke: #fff;
        stroke-width: 9.56px;
        fill-rule: evenodd;
      }
    </style>
  </defs>
  <path class="cls-1" d="M363,427s207.209,4.74,208-162c0,0,.021-37.229-14-68,0,0,52.165-63.9-9-119,0,0-58.149-46.065-111,10,0,0-68.552-28.946-156,1,0,0-55.9-57.155-116-4,0,0-53.976,47.034-2,114,0,0-40.75,83.977,13,156C176,355,220.416,430.076,363,427Zm-9-118s1.778-48.915-38-69c0,0-43.249-22.555-81,13,0,0-19.817,19.788-18,50,0,0-.34,66.092,65,68C282,371,346.558,373.919,354,309ZM221,298l130,5m-73,2s-1.626,24.871,22,27c0,0,21.838,2.434,26-25m39,2s-1.778-48.915,38-69c0,0,43.249-22.555,81,13,0,0,19.817,19.788,18,50,0,0,.34,66.092-65,68C437,371,372.442,373.919,365,309Zm136-8-132,8m80-6c0.2,11.342-1.008,32.272-27,35,0,0-32.336-1.2-30-32m-46,70s15.775,8.9,28,0m148.375-93.544S514.306,156.28,351,163c0,0-145.821-3.166-154,126,0,0-17.944,125.282,162,127C359.214,416.015,533.592,425.591,522.375,282.456Z" transform="translate(-135.626 -55.407)"/>
</svg>
